# xmcd
#
# Track frame offsets:
#	150
#	4503
#	20401
#	45700
#	68685
#	93922
#	121395
#	158286
#	179251
#	198233
#
# Disc length: 3024 seconds
#
# Revision: 1
# Processed by: cddbd v1.5.1PL2 Copyright (c) Steve Scherf et al.
# Submitted via: EasyCDDAExtractor 9.0.0.1
#
DISCID=6c0bce0a
DTITLE=Ozzy Osbourne - Obras Sanitarias Buenos Aires 12-09-95 Disc 1 Remaster
DYEAR=1995
DGENRE=Hard Rock
TTITLE0=Intro
TTITLE1=Paranoid
TTITLE2=Desire
TTITLE3=I Don't Know
TTITLE4=Flying High Again
TTITLE5=Goodbye To Romance
TTITLE6=No More Tears
TTITLE7=I Just Want You
TTITLE8=I Don't Want To Change The World
TTITLE9=Suicide Solution
EXTD=
EXTT0=
EXTT1=
EXTT2=
EXTT3=
EXTT4=
EXTT5=
EXTT6=
EXTT7=
EXTT8=
EXTT9=
PLAYORDER=
